<?xml version="1.0" standalone="no"?>
<!DOCTYPE svg PUBLIC "-//W3C//DTD SVG 20010904//EN"
 "http://www.w3.org/TR/2001/REC-SVG-20010904/DTD/svg10.dtd">
<svg version="1.0" xmlns="http://www.w3.org/2000/svg"
 width="512.000000pt" height="512.000000pt" viewBox="0 0 512.000000 512.000000"
 preserveAspectRatio="xMidYMid meet">

<g transform="translate(0.000000,512.000000) scale(0.100000,-0.100000)"
fill="#ffffff" stroke="none">
<path d="M2270 5039 c-372 -42 -799 -197 -1110 -404 -644 -428 -1053 -1095
-1141 -1860 -15 -130 -15 -422 0 -555 109 -957 750 -1780 1646 -2115 92 -34
107 -37 181 -33 96 5 148 31 212 104 71 80 77 112 77 409 0 244 -1 262 -20
295 -12 19 -38 46 -58 60 l-38 24 35 18 c50 26 74 66 92 155 18 86 25 103 78
182 81 119 25 242 -122 271 -463 91 -732 276 -842 580 -50 134 -63 233 -57
420 7 243 47 371 167 535 32 45 62 93 65 108 4 14 -1 83 -10 152 -17 124 -18
306 -2 332 17 28 204 -52 377 -161 58 -36 119 -69 137 -72 17 -3 66 1 110 10
292 61 734 61 1027 0 44 -9 94 -14 113 -11 18 3 72 32 120 64 159 106 365 195
391 169 12 -13 8 -276 -7 -363 -7 -45 -11 -97 -7 -115 3 -18 31 -67 63 -108
67 -89 113 -184 144 -300 21 -76 24 -106 23 -285 0 -233 -13 -299 -88 -450
-126 -254 -363 -410 -744 -491 -131 -28 -162 -42 -193 -85 -45 -63 -32 -181
25 -228 8 -7 25 -38 38 -69 22 -55 23 -70 28 -487 l5 -430 26 -56 c53 -112
139 -170 264 -177 73 -4 88 -1 180 33 592 219 1101 676 1386 1245 187 373 272
733 271 1150 0 415 -84 771 -269 1142 -382 764 -1124 1288 -1973 1393 -134 16
-469 19 -600 4z m630 -180 c262 -37 493 -110 732 -231 716 -361 1192 -1040
1299 -1848 18 -140 16 -450 -5 -595 -100 -701 -482 -1306 -1066 -1687 -193
-126 -493 -263 -572 -261 -45 1 -100 33 -119 70 -11 22 -15 114 -19 453 -6
404 -7 428 -28 492 -12 36 -38 89 -56 117 -34 50 -34 51 -13 56 241 53 337 84
471 153 288 148 459 364 539 680 19 76 21 114 21 292 0 178 -2 216 -21 292
-41 162 -96 276 -198 414 -14 19 -14 31 -3 95 6 41 12 142 13 224 0 164 -14
234 -60 291 -22 28 -26 29 -102 28 -122 -2 -292 -70 -472 -188 l-82 -54 -104
18 c-188 34 -421 49 -617 39 -163 -8 -334 -27 -434 -49 -39 -9 -45 -7 -123 44
-190 125 -347 188 -474 190 -75 1 -80 0 -102 -28 -58 -73 -79 -262 -51 -471
14 -107 14 -122 0 -140 -100 -134 -156 -251 -195 -408 -30 -120 -38 -379 -14
-518 17 -102 59 -238 97 -314 67 -132 208 -287 336 -369 169 -109 296 -157
589 -221 21 -5 21 -6 -13 -56 -35 -53 -74 -162 -74 -209 0 -23 -6 -30 -32 -39
-75 -24 -216 -43 -292 -39 -146 6 -231 67 -389 279 -98 132 -137 170 -198 193
-44 16 -368 70 -375 63 -3 -2 65 -56 150 -120 85 -65 173 -138 196 -164 24
-27 68 -102 102 -173 33 -69 79 -151 101 -183 78 -112 207 -190 339 -207 79
-10 247 1 332 20 23 5 44 10 49 10 4 0 7 -100 7 -222 0 -254 -9 -291 -72 -324
-53 -28 -102 -21 -228 30 -806 331 -1355 1041 -1477 1911 -19 135 -21 452 -4
585 72 545 305 1025 686 1405 534 534 1273 780 2025 674z"/>
</g>
</svg>
